HIERARCHY
ROOT Hips
{
	OFFSET 0.000000 0.000000 0.000000
	CHANNELS 6 Xposition Yposition Zposition Zrotation Yrotation Xrotation 
	JOINT LHipJoint
	{
		OFFSET 0.000000 0.000000 0.000000
		CHANNELS 3 Zrotation Yrotation Xrotation
		JOINT LeftUpLeg
		{
			OFFSET 1.363060 -1.794630 0.839290
			CHANNELS 3 Zrotation Yrotation Xrotation
			JOINT LeftLeg
			{
				OFFSET 2.448110 -6.726130 0.000000
				CHANNELS 3 Zrotation Yrotation Xrotation
				JOINT LeftFoot
				{
					OFFSET 2.562200 -7.039590 0.000000
					CHANNELS 3 Zrotation Yrotation Xrotation
					JOINT LeftToeBase
					{
						OFFSET 0.157640 -0.433110 2.322550
						CHANNELS 3 Zrotation Yrotation Xrotation
						End Site
						{
							OFFSET 0.000000 0.000000 0.000000
						}
					}
				}
			}
		}
	}
	JOINT RHipJoint
	{
		OFFSET 0.000000 0.000000 0.000000
		CHANNELS 3 Zrotation Yrotation Xrotation
		JOINT RightUpLeg
		{
			OFFSET -1.305520 -1.794630 0.839290
			CHANNELS 3 Zrotation Yrotation Xrotation
			JOINT RightLeg
			{
				OFFSET -2.542530 -6.985550 0.000000
				CHANNELS 3 Zrotation Yrotation Xrotation
				JOINT RightFoot
				{
					OFFSET -2.568260 -7.056230 0.000000
					CHANNELS 3 Zrotation Yrotation Xrotation
					JOINT RightToeBase
					{
						OFFSET -0.164730 -0.452590 2.363150
						CHANNELS 3 Zrotation Yrotation Xrotation
						End Site
						{
							OFFSET 0.000000 0.000000 0.000000
						}
					}
				}
			}
		}
	}
	JOINT LowerBack
	{
		OFFSET 0.000000 0.000000 0.000000
		CHANNELS 3 Zrotation Yrotation Xrotation
		JOINT Spine
		{
			OFFSET 0.028270 2.035590 -0.193380
			CHANNELS 3 Zrotation Yrotation Xrotation
			JOINT Spine1
			{
				OFFSET 0.056720 2.048850 -0.042750
				CHANNELS 3 Zrotation Yrotation Xrotation
				JOINT Neck
				{
					OFFSET 0.000000 0.000000 0.000000
					CHANNELS 3 Zrotation Yrotation Xrotation
					JOINT Neck1
					{
						OFFSET -0.054170 1.746240 0.172020
						CHANNELS 3 Zrotation Yrotation Xrotation
						JOINT Head
						{
							OFFSET 0.104070 1.761360 -0.123970
							CHANNELS 3 Zrotation Yrotation Xrotation
							End Site
							{
								OFFSET 0.000000 0.000000 0.000000
							}
						}
					}
				}
				JOINT LeftShoulder
				{
					OFFSET 0.000000 0.000000 0.000000
					CHANNELS 3 Zrotation Yrotation Xrotation
					JOINT LeftArm
					{
						OFFSET 3.362410 1.200890 -0.311210
						CHANNELS 3 Zrotation Yrotation Xrotation
						JOINT LeftForeArm
						{
							OFFSET 4.983000 -0.000000 -0.000000
							CHANNELS 3 Zrotation Yrotation Xrotation
							JOINT LeftHand
							{
								OFFSET 3.483560 -0.000000 -0.000000
								CHANNELS 3 Zrotation Yrotation Xrotation
								JOINT LeftFingerBase
								{
									OFFSET 0.000000 0.000000 0.000000
									CHANNELS 3 Zrotation Yrotation Xrotation
									JOINT LeftHandIndex1
									{
										OFFSET 0.715260 -0.000000 -0.000000
										CHANNELS 3 Zrotation Yrotation Xrotation
										End Site
										{
											OFFSET 0.000000 0.000000 0.000000
										}
									}
								}
								JOINT LThumb
								{
									OFFSET 0.000000 0.000000 0.000000
									CHANNELS 3 Zrotation Yrotation Xrotation
									End Site
									{
										OFFSET 0.000000 0.000000 0.000000
									}
								}
							}
						}
					}
				}
				JOINT RightShoulder
				{
					OFFSET 0.000000 0.000000 0.000000
					CHANNELS 3 Zrotation Yrotation Xrotation
					JOINT RightArm
					{
						OFFSET -3.136600 1.374050 -0.404650
						CHANNELS 3 Zrotation Yrotation Xrotation
						JOINT RightForeArm
						{
							OFFSET -5.241900 -0.000000 -0.000000
							CHANNELS 3 Zrotation Yrotation Xrotation
							JOINT RightHand
							{
								OFFSET -3.444170 -0.000000 -0.000000
								CHANNELS 3 Zrotation Yrotation Xrotation
								JOINT RightFingerBase
								{
									OFFSET 0.000000 0.000000 0.000000
									CHANNELS 3 Zrotation Yrotation Xrotation
									JOINT RightHandIndex1
									{
										OFFSET -0.622530 -0.000000 -0.000000
										CHANNELS 3 Zrotation Yrotation Xrotation
										End Site
										{
											OFFSET 0.000000 0.000000 0.000000
										}
									}
								}
								JOINT RThumb
								{
									OFFSET 0.000000 0.000000 0.000000
									CHANNELS 3 Zrotation Yrotation Xrotation
									End Site
									{
										OFFSET 0.000000 0.000000 0.000000
									}
								}
							}
						}
					}
				}
			}
		}
	}
}
MOTION
Frames: 5
Frame Time: 0.008333
24.259651 15.821209 2.286463 124.941210 -85.429459 -102.060958 -6.447037 1.058286 10.104944 -9.463333 -22.657660 -65.485043 -1.402398 1.166315 34.342468 1.599193 6.628229 -3.850591 1.260300 0.000001 -25.817700 11.825098 -6.220838 1.911941 3.801669 -9.634384 9.789964 1.573412 -0.600580 5.504601 0.685616 11.147759 18.781304 4.420200 -0.000001 -83.800600 -7.007439 3.997524 -13.540969 -3.002801 4.313057 -5.407267 -7.260630 4.296552 2.294527 11.199889 -3.670117 -9.868902 -2.851231 -0.209017 -0.610981 0.000000 0.000000 0.000000 -2.900098 29.652058 1.959965 -39.275021 11.314444 -32.467337 -3.101506 -31.254711 0.027309 19.232890 -3.515790 -0.587554 -0.094689 -0.061722 -0.000000 0.000000 0.000000 0.000000 0.000000 0.000000 0.000000 11.875496 6.113214 -0.795563 69.584826 27.881616 46.160192 -179.800473 83.841530 -179.985608 -2.440537 22.275154 -0.522301 0.119842 -0.995797 -0.000000 0.000000 0.000000 0.000000 0.000000 0.000000 0.000000 
24.003905 15.863635 2.273934 122.886075 -85.205949 -100.145461 -6.357570 1.125148 10.070857 -10.019302 -22.972811 -64.555969 -1.347310 1.196407 35.016746 1.767173 7.336399 -4.332404 1.264000 0.000000 -25.207700 12.020143 -6.236260 1.939054 3.193781 -9.555408 8.710527 1.238856 -0.884870 8.246927 0.506550 11.940432 22.102780 5.467000 0.000000 -84.858500 -7.282958 3.999882 -13.552855 -3.073973 4.360564 -5.425749 -7.281060 4.348774 2.206026 11.203553 -3.783077 -9.905997 -2.821051 -0.206136 -0.620407 0.000000 0.000000 0.000000 -3.016254 29.673682 1.935684 -38.946837 10.681311 -32.917298 -3.020944 -32.268931 0.027397 19.621661 -3.782065 -0.646234 -0.095291 -0.059295 -0.000000 0.000000 0.000000 0.000000 0.000000 0.000000 0.000000 11.750395 6.045414 -0.892337 69.726948 26.900427 45.468848 -179.736531 84.359031 -179.986110 -2.161935 22.307080 -0.462690 0.106162 -0.985926 -0.000000 0.000000 0.000000 0.000000 0.000000 0.000000 0.000000 
23.753763 15.908570 2.264039 121.232713 -84.984667 -98.695767 -6.301116 1.182725 9.988739 -10.669035 -23.135102 -63.441438 -1.324707 1.223543 35.589154 1.902935 7.876579 -4.916879 1.213900 0.000001 -24.456600 12.201034 -6.198104 1.938867 2.606760 -9.537975 7.487668 0.895443 -1.126724 11.315127 0.291738 12.724039 25.269548 6.561400 -0.000001 -84.575000 -7.503475 3.996712 -13.481661 -3.125527 4.393363 -5.425586 -7.283477 4.385830 2.123443 11.170458 -3.892494 -9.943932 -2.796159 -0.203494 -0.630573 0.000000 0.000000 0.000000 -3.137397 29.688504 1.913284 -38.848432 10.011136 -33.438257 -2.929561 -33.364775 0.027337 20.045295 -4.059597 -0.710317 -0.095729 -0.056414 -0.000000 0.000000 0.000000 0.000000 0.000000 0.000000 0.000000 11.620631 5.971567 -0.990364 69.803455 25.937958 44.695288 -179.672168 84.962343 -179.986910 -1.902617 22.379927 -0.407698 0.092539 -0.974272 -0.000000 0.000000 0.000000 0.000000 0.000000 0.000000 0.000000 
23.509578 15.955502 2.256171 119.756626 -84.759258 -97.483951 -6.267736 1.240173 9.868440 -11.415487 -23.166020 -62.141792 -1.335824 1.247209 36.044735 2.006203 8.252116 -5.588491 1.115399 0.000000 -23.569900 12.374574 -6.101429 1.904993 2.018153 -9.631780 6.131167 0.561444 -1.318762 14.669490 0.052733 13.337527 28.137169 7.565400 -0.000000 -82.979600 -7.685579 3.980617 -13.331039 -3.160750 4.405963 -5.407690 -7.267995 4.402389 2.046717 11.106916 -4.004740 -9.977445 -2.777576 -0.201258 -0.639990 0.000000 0.000000 0.000000 -3.253340 29.667626 1.894741 -38.982041 9.352154 -33.994402 -2.828658 -34.558392 0.027069 20.497951 -4.322559 -0.775001 -0.096134 -0.053064 -0.000000 0.000000 0.000000 0.000000 0.000000 0.000000 0.000000 11.500418 5.881716 -1.084162 69.817482 25.012984 43.854831 -179.610244 85.650980 -179.987869 -1.659808 22.474843 -0.356222 0.079375 -0.960684 -0.000000 0.000000 0.000000 0.000000 0.000000 0.000000 0.000000 
23.271024 16.004110 2.250005 118.317691 -84.533056 -96.362085 -6.252088 1.303233 9.720217 -12.243069 -23.078852 -60.674494 -1.379084 1.266294 36.371941 2.077675 8.468211 -6.328569 0.976500 0.000000 -22.582300 12.538701 -5.949425 1.836053 1.433214 -9.851680 4.655740 0.254227 -1.464490 18.253060 -0.197484 13.555586 30.569757 8.281300 0.000000 -80.272900 -7.834451 3.946883 -13.112364 -3.181107 4.394281 -5.373505 -7.236487 4.394470 1.978262 11.020324 -4.124449 -10.004257 -2.765547 -0.199499 -0.647923 0.000000 0.000000 0.000000 -3.356188 29.606073 1.879229 -39.341012 8.711671 -34.554324 -2.720510 -35.841192 0.026554 20.974866 -4.559009 -0.838187 -0.096662 -0.049200 -0.000000 0.000000 0.000000 0.000000 0.000000 0.000000 0.000000 11.398897 5.767551 -1.172491 69.775514 24.130986 42.956537 -179.552705 86.417356 -179.988877 -1.425740 22.573888 -0.306361 0.066756 -0.945096 -0.000000 0.000000 0.000000 0.000000 0.000000 0.000000 0.000000 
